<svg width="172" height="34" fill="none" xmlns="http://www.w3.org/2000/svg"><mask id="a" maskUnits="userSpaceOnUse" x="0" y="0" width="172" height="34"><path fill-rule="evenodd" clip-rule="evenodd" d="M0 0h172v34H0V0z" fill="#fff"/></mask><g mask="url(#a)" fill-rule="evenodd" clip-rule="evenodd" fill="#fff"><path d="M35.549 33h6.901V10.856h-6.9V33zM35 3.965c0-1.092.388-2.027 1.172-2.8C36.952.388 37.897 0 39.002 0a3.87 3.87 0 0 1 2.826 1.164C42.612 1.938 43 2.873 43 3.965c0 1.094-.388 2.03-1.172 2.802-.78.777-1.725 1.162-2.826 1.162-1.105 0-2.05-.385-2.83-1.162C35.388 5.995 35 5.06 35 3.965zM60.916 17.99c-1.006-1.231-2.333-1.848-3.983-1.848-.58 0-1.143.134-1.693.404-.55.272-.823.738-.823 1.398 0 .542.28.939.846 1.196.564.255 1.28.482 2.15.675.87.198 1.803.407 2.793.63.994.228 1.924.582 2.793 1.062a6.24 6.24 0 0 1 2.154 1.963c.563.827.847 1.931.847 3.313 0 1.415-.314 2.578-.94 3.496a7.196 7.196 0 0 1-2.403 2.21c-.977.556-2.077.946-3.297 1.172-1.22.224-2.427.339-3.617.339-1.556 0-3.13-.22-4.716-.653-1.588-.438-2.93-1.213-4.027-2.326l4.166-4.553c.64.782 1.35 1.375 2.127 1.782.78.404 1.687.608 2.724.608.792 0 1.512-.112 2.153-.338.64-.227.96-.637.96-1.242 0-.57-.28-.998-.847-1.283-.563-.286-1.28-.526-2.15-.722-.87-.194-1.803-.407-2.793-.63a11.726 11.726 0 0 1-2.793-1.015 5.813 5.813 0 0 1-2.15-1.918c-.567-.827-.85-1.93-.85-3.312 0-1.294.27-2.407.803-3.34a6.961 6.961 0 0 1 2.106-2.299c.87-.6 1.867-1.043 2.997-1.332A14.096 14.096 0 0 1 56.886 11c1.467 0 2.947.21 4.443.63 1.494.423 2.76 1.173 3.8 2.256l-4.213 4.104zM71 10.555h6.409v3.046h.088c.207-.43.505-.86.89-1.29a6.57 6.57 0 0 1 1.381-1.158 7.837 7.837 0 0 1 1.824-.83A7.353 7.353 0 0 1 83.82 10c1.513 0 2.854.323 4.027.969 1.17.648 2.054 1.664 2.647 3.05.771-1.446 1.705-2.479 2.803-3.094 1.099-.615 2.45-.925 4.05-.925 1.455 0 2.677.256 3.672.764.994.507 1.781 1.2 2.359 2.077.579.878.994 1.911 1.247 3.094.249 1.187.376 2.455.376 3.81V33h-6.675V19.93c0-1.046-.214-1.947-.645-2.704-.431-.753-1.195-1.13-2.291-1.13-.77 0-1.42.131-1.937.394a3.205 3.205 0 0 0-1.245 1.086 4.58 4.58 0 0 0-.667 1.614 9.021 9.021 0 0 0-.201 1.94V33h-6.675V21.13c0-.4-.016-.891-.045-1.476a6.102 6.102 0 0 0-.31-1.664 3.2 3.2 0 0 0-.87-1.338c-.401-.37-.988-.555-1.759-.555-.858 0-1.555.16-2.09.484a3.256 3.256 0 0 0-1.225 1.294 5.454 5.454 0 0 0-.557 1.823c-.088.68-.133 1.385-.133 2.125V33H71V10.555zm51.131 13.296c-.511 0-1.146.023-1.912.069a9.751 9.751 0 0 0-2.203.384c-.704.21-1.303.525-1.798.946-.494.424-.743 1.008-.743 1.76 0 .811.344 1.412 1.035 1.802a4.31 4.31 0 0 0 2.157.588c.661 0 1.296-.091 1.911-.272a5.633 5.633 0 0 0 1.64-.765 3.683 3.683 0 0 0 1.149-1.264c.286-.51.427-1.11.427-1.804v-1.444h-1.663zm1.663 6.856h-.089c-.75 1.173-1.748 2.016-2.992 2.525a10.237 10.237 0 0 1-3.935.768c-1.018 0-2-.144-2.943-.43a7.379 7.379 0 0 1-2.494-1.283 6.172 6.172 0 0 1-1.709-2.122c-.422-.84-.632-1.818-.632-2.929 0-1.264.232-2.331.697-3.204a6.268 6.268 0 0 1 1.889-2.164 9.408 9.408 0 0 1 2.721-1.33 19.918 19.918 0 0 1 3.169-.7 30.05 30.05 0 0 1 3.283-.268c1.093-.03 2.105-.046 3.035-.046 0-1.202-.427-2.158-1.281-2.863-.854-.706-1.866-1.061-3.034-1.061-1.11 0-2.122.233-3.038.7a8.254 8.254 0 0 0-2.448 1.917l-3.598-3.7a12.354 12.354 0 0 1 4.406-2.637 15.66 15.66 0 0 1 5.215-.88c1.98 0 3.604.25 4.881.745 1.273.496 2.291 1.225 3.057 2.187.763.962 1.296 2.14 1.594 3.54.302 1.398.452 3.013.452 4.845V33.46h-6.206v-2.752zM136 10.555h6.579v3.601h.089c.699-1.386 1.533-2.424 2.5-3.117.965-.692 2.179-1.039 3.641-1.039.377 0 .76.017 1.141.047.379.03.727.091 1.05.185v6.325a9.897 9.897 0 0 0-1.38-.346 8.911 8.911 0 0 0-1.427-.114c-1.258 0-2.252.184-2.983.555-.731.37-1.293.884-1.686 1.546-.397.662-.651 1.456-.77 2.377-.118.925-.175 1.94-.175 3.05V33H136V10.555zm36 6.37h-5.937v7.318c0 .601.031 1.15.092 1.647.059.496.193.928.403 1.289.209.362.534.638.969.835.433.198 1.012.293 1.729.293.36 0 .835-.036 1.418-.111.586-.076 1.028-.25 1.326-.52v5.647c-.75.27-1.529.45-2.338.542-.809.089-1.604.135-2.384.135a12.94 12.94 0 0 1-3.146-.362c-.963-.24-1.801-.625-2.521-1.151a5.4 5.4 0 0 1-1.686-2.056c-.403-.841-.607-1.867-.607-3.071V16.925H155v-5.42h4.318V5h6.745v6.505H172v5.42zM30 30.91a24.415 24.415 0 0 1-6.363 2.362 31.37 31.37 0 0 1-6.759.728c-2.444 0-4.699-.394-6.761-1.181-2.062-.788-3.844-1.917-5.347-3.386-1.501-1.47-2.673-3.25-3.512-5.34C.418 22 0 19.666 0 17.092c0-2.575.418-4.91 1.258-6.999.84-2.09 2.01-3.87 3.512-5.34 1.503-1.47 3.296-2.697 5.358-3.488C12.19.479 14.648 0 16.863 0c2.06 0 4.386.21 6.576.92 2.09.677 4.31 1.888 5.898 3.4l-4.86 5.454c-.943-1-2.004-1.754-3.182-2.27-1.177-.516-2.65-.774-4.417-.774-1.473 0-2.804.258-3.998.773a9.017 9.017 0 0 0-3.072 2.158c-.856.927-1.508 2.022-1.965 3.296-.457 1.274-.685 2.65-.685 4.136 0 1.516.228 2.902.685 4.16.457 1.257 1.11 2.346 1.965 3.27a8.98 8.98 0 0 0 3.072 2.16c1.194.517 2.525.77 3.998.77 1.503 0 2.8-.171 3.886-.522 1.091-.347 1.96-.7 2.61-1.065v-5.229H17.76v-6.545H30v16.817z"/></g></svg>